<?xml version="1.0" standalone="no"?>
<!DOCTYPE svg PUBLIC "-//W3C//DTD SVG 20010904//EN"
 "http://www.w3.org/TR/2001/REC-SVG-20010904/DTD/svg10.dtd">
<svg version="1.0" xmlns="http://www.w3.org/2000/svg"
 width="413.000000pt" height="531.000000pt" viewBox="0 0 413.000000 531.000000"
 preserveAspectRatio="xMidYMid meet">
<metadata>
Created by potrace 1.16, written by Peter Selinger 2001-2019
</metadata>
<g transform="translate(0.000000,531.000000) scale(0.100000,-0.100000)"
fill="#000000" stroke="none">
<path d="M1906 5076 l-29 -13 22 -13 c31 -16 22 -21 -45 -26 -32 -2 -68 -11
-81 -19 -12 -8 -30 -15 -40 -14 -16 0 -16 1 2 9 11 5 16 10 10 11 -24 5 -30 7
-35 9 -3 1 -16 3 -30 5 -14 1 -36 5 -49 9 -15 5 -21 4 -17 -2 3 -6 -11 -8 -40
-4 -39 4 -46 2 -50 -15 -4 -14 -20 -22 -57 -30 -88 -18 -96 -21 -134 -50 -21
-15 -40 -31 -43 -34 -3 -4 -23 -18 -44 -33 -21 -14 -36 -26 -32 -26 4 0 -13
-17 -38 -37 -24 -21 -45 -43 -45 -48 -1 -10 -110 -134 -198 -224 -23 -24 -47
-58 -54 -75 -7 -17 -26 -51 -42 -75 -29 -42 -30 -46 -35 -205 -7 -229 -7 -213
12 -529 15 -233 16 -290 5 -303 -17 -20 -22 -66 -6 -58 7 3 3 -2 -8 -11 -19
-15 -19 -16 9 -39 21 -16 27 -28 23 -41 -7 -16 -9 -16 -30 -1 -38 27 -99 58
-104 52 -8 -7 59 -82 69 -78 5 1 20 -11 34 -28 28 -33 44 -38 44 -15 0 33 29
14 36 -22 12 -72 35 -142 54 -165 l19 -23 -1 55 c-1 57 19 464 27 558 8 86 27
112 119 158 44 22 61 35 60 50 -3 68 -5 74 -20 74 -9 0 -12 5 -8 12 4 6 9 27
11 47 2 19 7 38 11 41 4 3 7 25 6 50 0 25 5 54 12 66 7 12 9 26 4 34 -5 7 -6
23 -3 34 3 12 8 44 10 72 4 38 12 61 35 88 19 23 34 34 40 28 10 -10 56 -4 64
9 8 13 62 11 66 -3 4 -11 75 -20 151 -19 20 0 37 -4 37 -9 0 -6 9 -6 23 -1 27
10 47 4 47 -14 0 -9 12 -11 44 -8 25 3 46 1 50 -5 4 -6 23 -8 44 -6 27 4 33 3
22 -5 -32 -22 -4 -27 117 -19 44 3 74 0 76 -6 2 -6 11 -6 23 -1 10 4 25 9 33
11 8 1 18 10 23 18 5 8 14 13 22 10 7 -3 18 2 25 10 8 10 20 12 39 7 18 -5 35
-3 50 7 21 14 22 13 22 -12 0 -19 4 -25 13 -19 23 15 57 10 57 -9 0 -21 1 -21
34 -8 18 7 26 6 26 -1 0 -7 6 -7 16 2 14 11 18 11 28 -1 6 -8 21 -24 34 -34
22 -19 22 -19 52 9 16 15 27 32 24 37 -3 4 -1 8 5 8 6 0 22 -17 36 -37 18 -28
25 -33 25 -19 0 18 1 18 23 -2 32 -30 37 -28 37 14 0 27 4 35 14 31 8 -3 17
-3 20 1 11 11 40 11 53 0 14 -11 43 11 43 33 0 7 3 9 6 6 4 -3 15 -2 26 4 24
13 75 -21 84 -56 3 -13 14 -31 25 -41 10 -9 19 -25 19 -36 0 -10 7 -18 15 -18
8 0 15 -7 15 -15 0 -27 1 -30 14 -37 8 -5 12 -23 11 -48 -1 -22 2 -43 6 -46 5
-3 9 -18 9 -35 0 -16 5 -29 11 -29 6 0 8 -7 5 -16 -3 -8 -2 -13 3 -10 13 8 19
-15 14 -49 -2 -17 -4 -38 -4 -47 0 -10 -5 -18 -11 -18 -6 0 -6 -6 2 -15 10
-12 10 -15 -1 -15 -10 0 -10 -3 -2 -11 6 -6 9 -18 6 -25 -3 -8 1 -14 10 -14
31 0 87 -73 107 -140 29 -99 52 -323 48 -464 -2 -68 0 -122 4 -120 12 7 19
-32 17 -95 -3 -105 30 -103 45 2 6 37 4 53 -8 66 -19 21 -6 79 24 106 11 10
20 26 20 36 0 10 5 21 10 24 6 3 10 15 10 27 0 16 3 18 13 10 7 -6 22 -9 34
-6 11 3 24 0 28 -6 11 -17 10 -174 0 -191 -5 -7 -10 -29 -12 -49 -4 -34 -3
-34 32 25 20 33 41 80 47 105 5 25 18 66 28 93 18 47 18 47 -3 62 -29 20 -64
19 -97 -5 -32 -23 -40 -18 -40 26 0 24 5 34 20 39 23 7 27 33 5 41 -19 8 -19
19 -1 36 10 11 13 55 13 198 -1 102 2 237 5 300 4 63 7 169 7 235 0 66 0 147
0 180 1 106 -17 156 -79 222 -30 32 -67 74 -82 93 -14 20 -42 52 -62 72 -25
25 -36 45 -36 65 0 36 -42 77 -132 129 -11 6 -19 15 -18 20 1 5 -39 23 -89 40
-50 17 -99 38 -109 47 -10 10 -21 17 -25 17 -3 0 -28 14 -55 31 -45 28 -78 39
-152 55 -35 7 -90 25 -118 37 -16 8 -32 8 -52 0 -16 -6 -30 -7 -32 -3 -5 14
-78 24 -78 11 0 -6 -5 -11 -11 -11 -5 0 -7 5 -3 11 4 8 -1 9 -15 4 -12 -4 -27
-2 -34 3 -7 5 -20 12 -29 15 -13 4 -16 2 -12 -11 5 -15 4 -15 -9 1 -13 16 -67
21 -67 6 0 -4 -17 -3 -37 1 -79 17 -128 18 -157 6z"/>
<path d="M1388 3471 c-43 -25 -110 -73 -166 -117 -23 -19 -25 -25 -15 -46 10
-23 15 -25 77 -22 36 2 66 -1 66 -6 0 -5 -11 -20 -25 -34 -47 -47 -28 -101 35
-100 22 1 40 -3 40 -8 0 -5 10 -3 23 4 12 7 26 11 32 9 5 -1 1 7 -9 18 -21 23
-21 23 10 39 19 10 23 7 37 -28 15 -38 17 -40 59 -40 35 0 51 -6 76 -28 34
-31 41 -52 17 -52 -8 0 -15 -5 -15 -11 0 -16 52 -4 87 18 21 14 23 19 11 21
-9 2 -19 9 -21 17 -4 10 12 15 64 20 68 7 78 12 59 31 -14 14 0 54 20 54 15 0
30 -18 30 -37 0 -3 -12 -2 -27 2 -23 5 -25 4 -14 -9 8 -9 24 -16 37 -16 27 0
38 27 28 73 -3 17 -7 62 -7 99 0 74 -9 90 -62 102 -16 4 -32 12 -35 17 -6 9
-110 25 -220 34 -36 2 -84 8 -106 13 -35 8 -47 5 -86 -17z"/>
<path d="M2639 3465 c-3 -2 -59 -7 -124 -10 -66 -3 -138 -11 -160 -16 -60 -16
-135 -52 -135 -66 0 -7 -7 -16 -15 -21 -13 -7 -12 -10 7 -19 13 -6 31 -14 41
-17 11 -3 17 -16 17 -35 0 -18 7 -34 18 -40 14 -8 15 -13 5 -30 -19 -30 -16
-37 7 -16 31 28 36 10 6 -22 -14 -15 -26 -31 -26 -35 0 -5 26 -8 58 -7 48 0
53 2 32 10 l-25 10 33 30 c41 37 59 37 67 0 9 -40 29 -55 82 -58 53 -4 78 8
98 47 17 33 36 31 72 -7 29 -31 66 -31 61 0 -4 32 -115 85 -206 99 -70 11 -70
12 -44 26 53 27 185 -3 244 -56 32 -29 40 -32 37 -17 -2 11 -25 34 -51 50 -26
17 -47 33 -47 37 -1 4 37 6 83 4 46 -2 99 -1 117 3 l34 7 -47 32 c-26 18 -51
32 -56 32 -5 0 -17 9 -27 20 -9 10 -34 25 -54 31 -20 6 -42 16 -49 22 -7 5
-15 7 -19 4 -3 -4 -11 -2 -18 3 -7 5 -14 8 -16 5z"/>
<path d="M1958 2239 c-10 -5 -18 -6 -18 -2 0 4 -5 1 -10 -7 -7 -12 -12 -12
-22 -2 -25 25 -111 8 -188 -38 -8 -5 -33 -18 -55 -28 -22 -10 -46 -26 -54 -35
-12 -15 -10 -18 10 -26 13 -5 29 -5 34 -1 15 12 50 -18 50 -43 0 -15 12 -28
43 -44 24 -13 50 -29 57 -37 57 -56 353 -38 417 26 21 21 21 22 2 29 -27 11
-44 11 -41 0 1 -5 -2 -8 -8 -8 -5 1 -9 5 -8 8 1 4 -16 7 -38 7 -22 1 -54 8
-71 16 -38 19 -54 20 -61 3 -11 -29 -197 14 -197 45 0 4 18 5 40 2 29 -3 42
-1 46 9 4 11 29 15 107 15 56 1 123 5 148 10 35 7 64 5 115 -8 111 -28 164
-32 164 -15 0 9 -12 20 -27 26 -16 6 -51 21 -80 35 -55 25 -75 28 -134 18 -25
-4 -40 -1 -51 9 -12 12 -24 14 -57 6 -39 -9 -44 -7 -63 16 -22 28 -25 29 -50
14z"/>
<path d="M1623 1651 c3 -14 0 -17 -14 -14 -11 3 -19 0 -19 -6 0 -6 5 -11 10
-11 6 0 8 -11 4 -25 -6 -24 4 -31 38 -27 3 1 9 -5 12 -13 3 -8 1 -15 -4 -15
-6 0 -10 -5 -10 -11 0 -6 8 -9 19 -6 11 3 30 -5 46 -19 16 -13 35 -24 44 -24
9 0 22 -9 29 -21 7 -12 16 -19 18 -16 7 6 54 -37 54 -49 0 -16 61 -44 95 -44
29 0 63 -23 58 -39 -1 -3 1 -8 3 -10 2 -2 4 0 4 6 0 6 17 11 38 12 72 1 91 6
103 27 8 15 17 20 31 16 15 -4 19 -1 16 9 -3 8 -11 13 -17 11 -6 -1 -11 5 -11
13 0 9 -10 20 -22 25 -18 7 -19 9 -5 9 9 1 16 4 15 9 -6 22 15 52 38 52 13 0
24 4 24 8 0 4 26 21 58 37 44 23 52 31 35 33 -12 2 -27 10 -33 18 -7 8 -23 14
-36 14 -13 0 -24 5 -24 11 0 8 -15 10 -45 7 -30 -4 -48 -1 -55 7 -8 10 -36 12
-102 9 -49 -2 -98 0 -107 5 -30 16 -121 20 -149 5 -14 -7 -30 -10 -35 -7 -6 3
-23 7 -40 9 -16 1 -34 7 -40 13 -17 17 -30 13 -24 -8z"/>
<path d="M2165 894 c19 -15 18 -16 -20 -8 -45 10 -193 11 -272 2 -56 -6 -93
-30 -167 -107 l-39 -40 24 -11 c38 -17 199 -249 199 -286 0 -6 6 -17 14 -23
22 -18 5 -127 -50 -320 -13 -46 -24 -87 -24 -92 0 -5 96 -9 215 -9 l215 0 0
38 c0 20 -9 73 -21 117 -11 44 -25 98 -30 120 -6 22 -17 59 -25 83 -10 30 -11
49 -4 62 5 10 10 35 10 56 0 48 82 218 116 240 13 9 24 22 24 29 0 19 -149
165 -168 165 -15 -1 -14 -3 3 -16z"/>
</g>
</svg>
